<svg xmlns="http://www.w3.org/2000/svg" viewBox="0 0 256 256">
  <path fill="currentColor" d="M128 156c-15.44 0-28-12.561-28-28s12.56-28 28-28 28 12.561 28 28-12.56 28-28 28Z" class="cls-2"/>
  <path fill="currentColor" d="M128 256c-24.647 0-47.276-25.88-59.058-67.54l-.31-1.093-1.093-.309C25.88 175.276 0 152.646 0 128c0-11.335 5.58-22.567 16.139-32.481l3.217-3.021-4.387-.48c-5.26-.575-9.143-5.205-8.658-10.322a9.42 9.42 0 0 1 9.407-8.569c.302 0 .605.014.911.044l25.583 2.435c6.773.644 11.759 6.679 11.114 13.452l-2.435 25.58a9.418 9.418 0 0 1-9.407 8.57c-.301 0-.605-.014-.911-.044-6.104-.581-8.363-5.811-8.442-10.112l-.089-4.817-3.388 3.427c-5.454 5.518-8.337 11.168-8.337 16.339 0 9.505 9.803 20.387 26.221 29.11 4.201 2.232 8.904 4.335 13.977 6.252l3.209 1.212-.479-3.397c-1.522-10.791-2.294-21.953-2.294-33.178C60.952 57.421 91.03 0 128 0c24.647 0 47.276 25.88 59.058 67.54l.31 1.093 1.093.309c41.66 11.782 67.54 34.412 67.54 59.058 0 36.97-57.421 67.048-128 67.048-11.228 0-22.39-.772-33.178-2.294l-3.397-.479 1.212 3.209c1.918 5.075 4.022 9.777 6.252 13.977 8.723 16.419 19.605 26.221 29.11 26.221 4.96 0 10.383-2.663 15.684-7.7l3.616-3.437-4.988-.067c-4.781-.064-8.743-3.443-9.422-8.036-.761-5.163 2.82-9.983 7.983-10.744l25.423-3.748a12.457 12.457 0 0 1 1.816-.133c6.064 0 11.305 4.532 12.19 10.541l3.747 25.422c.761 5.163-2.819 9.984-7.982 10.745-.502.074-1.003.112-1.487.112-5.382 0-8.592-4.561-9.385-9.08l-.723-4.122-2.792 3.118c-10.22 11.415-21.867 17.448-33.681 17.448Zm0-174.73c-14.083 0-27.933 1.331-41.162 3.955l-1.332.264-.265 1.333C82.606 100.093 81.27 113.947 81.27 128s1.335 27.898 3.969 41.164l.265 1.332 1.332.265c13.269 2.633 27.118 3.969 41.164 3.969s27.911-1.337 41.184-3.973l1.332-.264.265-1.333c2.621-13.209 3.949-27.058 3.949-41.16s-1.335-27.898-3.969-41.164l-.265-1.332-1.332-.265C155.895 82.606 142.046 81.27 128 81.27Zm64.754 13.553c1.522 10.791 2.294 21.953 2.294 33.178s-.777 22.337-2.308 33.182l-.479 3.397 3.209-1.212c5.081-1.92 9.788-4.025 13.991-6.257 16.419-8.723 26.221-19.605 26.221-29.11s-9.803-20.387-26.221-29.11c-4.201-2.232-8.904-4.335-13.977-6.252l-3.209-1.212.479 3.397ZM128 20.317c-9.505 0-20.387 9.803-29.11 26.221-2.231 4.201-4.335 8.906-6.255 13.984l-1.212 3.209 3.397-.479c10.819-1.527 21.983-2.301 33.181-2.301s22.39.772 33.178 2.294l3.397.479-1.212-3.209c-1.918-5.075-4.022-9.777-6.252-13.977-8.723-16.419-19.605-26.221-29.11-26.221Z" class="cls-2"/>
</svg>